<svg xmlns="http://www.w3.org/2000/svg" xmlns:xlink="http://www.w3.org/1999/xlink" viewBox="0 0 185.18 279.26"><defs><style>.cls-1,.cls-3,.cls-4{fill:#e5af32;}.cls-1,.cls-2,.cls-5{stroke:#e4af31;}.cls-1,.cls-2,.cls-3,.cls-4,.cls-5{stroke-miterlimit:10;}.cls-1,.cls-3,.cls-5{stroke-width:1.29px;}.cls-2,.cls-4{stroke-width:4px;}.cls-2{fill:url(#Naamloos_verloop_22);}.cls-3,.cls-4{stroke:#e5af32;}.cls-5{fill:url(#Naamloos_verloop_22-2);}</style><radialGradient id="Naamloos_verloop_22" cx="92.59" cy="186.67" r="90.59" gradientUnits="userSpaceOnUse"><stop offset="0.68" stop-color="#573600"/><stop offset="1" stop-color="#f8b018"/></radialGradient><radialGradient id="Naamloos_verloop_22-2" cx="97.7" cy="29.95" r="29.3" xlink:href="#Naamloos_verloop_22"/></defs><g id="Laag_2" data-name="Laag 2"><g id="Laag_1-2" data-name="Laag 1"><polyline class="cls-1" points="106.39 46.98 111.57 96.08 83.83 97.46 88.39 52.23 106.39 46.98"/><circle class="cls-2" cx="92.59" cy="186.67" r="90.59"/><path class="cls-3" d="M68.4,30H47.16s-8.44-7.56-11.83-7c-4.51.76-14.15,10-11.82,14,1.77,3,14,0,14,0Z"/><path class="cls-3" d="M81.3,7.67H60.06S51.62.11,48.24.68c-4.52.76-14.16,10-11.83,14,1.77,3,14,0,14,0Z"/><path class="cls-3" d="M81.3,52.23H60.06s-8.44-7.56-11.82-7c-4.52.76-14.16,10-11.83,14,1.77,3,14,0,14,0Z"/><path class="cls-3" d="M148.21,4.9c3.94,3.93,4.33,18.78,0,22.28-1.86,1.5-9.56,0-9.56,0V4.9S146.52,3.21,148.21,4.9Z"/><path class="cls-4" d="M122.72,16h0Z"/><path class="cls-3" d="M141.88,34.15c3.94,3.94,4.33,18.78,0,22.28-1.86,1.5-9.56,0-9.56,0V34.15S140.19,32.46,141.88,34.15Z"/><path class="cls-4" d="M116.39,45.29h0Z"/><circle class="cls-5" cx="97.7" cy="29.95" r="29.3"/></g></g></svg>