<svg id="Laag_1" data-name="Laag 1" xmlns="http://www.w3.org/2000/svg" xmlns:xlink="http://www.w3.org/1999/xlink" viewBox="0 0 185.18 279.26"><defs><style>.cls-1,.cls-3{fill:#e5af32;}.cls-1,.cls-2,.cls-3,.cls-4{stroke:#e5af32;stroke-miterlimit:10;}.cls-1,.cls-4{stroke-width:1.29px;}.cls-2,.cls-3{stroke-width:4px;}.cls-2{fill:url(#Naamloos_verloop_22);}.cls-4{fill:url(#Naamloos_verloop_22-2);}</style><radialGradient id="Naamloos_verloop_22" cx="246.72" cy="248.91" r="90.59" gradientTransform="matrix(-1, 0, 0, 1, 339.31, -62.25)" gradientUnits="userSpaceOnUse"><stop offset="0.68" stop-color="#573600"/><stop offset="1" stop-color="#f9b119"/></radialGradient><radialGradient id="Naamloos_verloop_22-2" cx="251.83" cy="92.19" r="29.3" xlink:href="#Naamloos_verloop_22"/></defs><polyline class="cls-1" points="78.79 46.98 73.61 96.08 101.36 97.46 96.79 52.23 78.79 46.98"/><circle class="cls-2" cx="92.59" cy="186.67" r="90.59"/><path class="cls-1" d="M270.91,92.19h21.24s8.44-7.56,11.83-7c4.51.77,14.15,10,11.83,14-1.78,3-14,0-14,0Z" transform="translate(-154.13 -62.25)"/><path class="cls-1" d="M258,69.91h21.24s8.44-7.56,11.83-7c4.51.77,14.15,10,11.82,14-1.77,3-14,0-14,0Z" transform="translate(-154.13 -62.25)"/><path class="cls-1" d="M258,114.47h21.24s8.44-7.56,11.83-7c4.51.76,14.15,10,11.82,14-1.77,3-14,0-14,0Z" transform="translate(-154.13 -62.25)"/><path class="cls-1" d="M191.1,67.14c-3.94,3.94-4.33,18.78,0,22.28,1.86,1.5,9.56,0,9.56,0V67.14S192.79,65.45,191.1,67.14Z" transform="translate(-154.13 -62.25)"/><path class="cls-3" d="M216.59,78.28h0Z" transform="translate(-154.13 -62.25)"/><path class="cls-1" d="M197.43,96.4c-3.94,3.94-4.33,18.78,0,22.28,1.86,1.5,9.56,0,9.56,0V96.4S199.12,94.71,197.43,96.4Z" transform="translate(-154.13 -62.25)"/><path class="cls-3" d="M222.92,107.54h0Z" transform="translate(-154.13 -62.25)"/><circle class="cls-4" cx="87.48" cy="29.95" r="29.3"/></svg>